<svg width="36" height="36" viewBox="0 0 36 36" fill="none" xmlns="http://www.w3.org/2000/svg">
<rect width="36" height="36" rx="18" fill="white"/>
<g clip-path="url(#clip0_14_37)">
<path d="M14.0274 24.6281C14.0274 24.7219 13.9161 24.7969 13.7758 24.7969C13.6161 24.8109 13.5048 24.7359 13.5048 24.6281C13.5048 24.5344 13.6161 24.4594 13.7565 24.4594C13.9016 24.4453 14.0274 24.5203 14.0274 24.6281ZM12.5226 24.4172C12.4887 24.5109 12.5855 24.6187 12.7306 24.6469C12.8565 24.6937 13.0016 24.6469 13.0306 24.5531C13.0597 24.4594 12.9677 24.3516 12.8226 24.3094C12.6968 24.2766 12.5565 24.3234 12.5226 24.4172ZM14.6613 24.3375C14.521 24.3703 14.4242 24.4594 14.4387 24.5672C14.4532 24.6609 14.579 24.7219 14.7242 24.6891C14.8645 24.6562 14.9613 24.5672 14.9468 24.4734C14.9323 24.3844 14.8016 24.3234 14.6613 24.3375ZM17.8452 6.375C11.1339 6.375 6 11.3109 6 17.8125C6 23.0109 9.37742 27.4594 14.2016 29.025C14.821 29.1328 15.0387 28.7625 15.0387 28.4578C15.0387 28.1672 15.0242 26.5641 15.0242 25.5797C15.0242 25.5797 11.6371 26.2828 10.9258 24.1828C10.9258 24.1828 10.3742 22.8187 9.58065 22.4672C9.58065 22.4672 8.47258 21.7312 9.65806 21.7453C9.65806 21.7453 10.8629 21.8391 11.5258 22.9547C12.5855 24.7641 14.3613 24.2437 15.0532 23.9344C15.1645 23.1844 15.479 22.6641 15.8274 22.3547C13.1226 22.0641 10.3935 21.6844 10.3935 17.175C10.3935 15.8859 10.7613 15.2391 11.5355 14.4141C11.4097 14.1094 10.9984 12.8531 11.6613 11.2312C12.6726 10.9266 15 12.4969 15 12.4969C15.9677 12.2344 17.0081 12.0984 18.0387 12.0984C19.0694 12.0984 20.1097 12.2344 21.0774 12.4969C21.0774 12.4969 23.4048 10.9219 24.4161 11.2312C25.079 12.8578 24.6677 14.1094 24.5419 14.4141C25.3161 15.2437 25.7903 15.8906 25.7903 17.175C25.7903 21.6984 22.9403 22.0594 20.2355 22.3547C20.6806 22.725 21.0581 23.4281 21.0581 24.5297C21.0581 26.1094 21.0435 28.0641 21.0435 28.4484C21.0435 28.7531 21.2661 29.1234 21.8806 29.0156C26.7194 27.4594 30 23.0109 30 17.8125C30 11.3109 24.5565 6.375 17.8452 6.375ZM10.7032 22.5422C10.6403 22.5891 10.6548 22.6969 10.7371 22.7859C10.8145 22.8609 10.9258 22.8938 10.9887 22.8328C11.0516 22.7859 11.0371 22.6781 10.9548 22.5891C10.8774 22.5141 10.7661 22.4812 10.7032 22.5422ZM10.1806 22.1625C10.1468 22.2234 10.1952 22.2984 10.2919 22.3453C10.3694 22.3922 10.4661 22.3781 10.5 22.3125C10.5339 22.2516 10.4855 22.1766 10.3887 22.1297C10.2919 22.1016 10.2145 22.1156 10.1806 22.1625ZM11.7484 23.8312C11.671 23.8922 11.7 24.0328 11.8113 24.1219C11.9226 24.2297 12.0629 24.2437 12.1258 24.1688C12.1887 24.1078 12.1597 23.9672 12.0629 23.8781C11.9565 23.7703 11.8113 23.7563 11.7484 23.8312ZM11.1968 23.1422C11.1194 23.1891 11.1194 23.3109 11.1968 23.4188C11.2742 23.5266 11.4048 23.5734 11.4677 23.5266C11.5452 23.4656 11.5452 23.3438 11.4677 23.2359C11.4 23.1281 11.2742 23.0813 11.1968 23.1422Z" fill="black"/>
</g>
<defs>
<clipPath id="clip0_14_37">
<rect width="24" height="24" fill="white" transform="translate(6 6)"/>
</clipPath>
</defs>
</svg>
