<svg width="40" height="40" viewBox="0 0 40 40" fill="none" xmlns="http://www.w3.org/2000/svg">
<rect width="40" height="40" rx="20" fill="white"/>
<g clip-path="url(#clip0_11_13)">
<path d="M20 8.375C13.371 8.375 8 13.5781 8 20C8 26.4219 13.371 31.625 20 31.625C26.629 31.625 32 26.4219 32 20C32 13.5781 26.629 8.375 20 8.375ZM25.5645 16.2828C25.3855 18.1203 24.6016 22.5828 24.2048 24.6406C24.0355 25.5125 23.7065 25.8031 23.3871 25.8312C22.6903 25.8922 22.1629 25.3859 21.4855 24.9547C20.4306 24.2844 19.8306 23.8672 18.8097 23.2109C17.6242 22.4563 18.3935 22.0391 19.0661 21.3594C19.2452 21.1812 22.3129 18.4766 22.371 18.2328C22.3806 18.2 22.3855 18.0875 22.3129 18.0266C22.2403 17.9656 22.1387 17.9891 22.0661 18.0031C21.9597 18.025 20.2726 19.1047 17.0048 21.2422C16.5274 21.5609 16.0935 21.7156 15.7032 21.7062C15.2726 21.6969 14.45 21.4719 13.8355 21.2797C13.0855 21.0453 12.4855 20.9187 12.5387 20.5156C12.5645 20.3062 12.8629 20.0922 13.4339 19.8734C16.9306 18.3984 19.2629 17.425 20.4306 16.9531C23.7645 15.6125 24.4565 15.3781 24.9065 15.3687C25.0081 15.3687 25.2258 15.3922 25.371 15.5047C25.4657 15.5854 25.5261 15.6973 25.5403 15.8188C25.5665 15.9721 25.5746 16.1277 25.5645 16.2828Z" fill="black"/>
</g>
<defs>
<clipPath id="clip0_11_13">
<rect width="24" height="24" fill="white" transform="translate(8 8)"/>
</clipPath>
</defs>
</svg>
